<svg width="24" height="14" viewBox="0 0 24 14" fill="none" xmlns="http://www.w3.org/2000/svg">
<path d="M24 13.588C23.6507 13.7199 23.2652 13.7195 22.9162 13.5869C22.5671 13.4543 22.2786 13.1986 22.105 12.868L18.655 8.09702L18.155 7.43002L14.152 12.874C13.989 13.1909 13.7162 13.4375 13.3845 13.5678C13.0529 13.6981 12.6851 13.7032 12.35 13.582L17.508 6.66202L12.71 0.411023C13.055 0.286698 13.4323 0.28505 13.7784 0.406356C14.1244 0.527662 14.4181 0.764512 14.61 1.07702L18.186 5.90702L21.782 1.09702C21.9463 0.78581 22.2192 0.545811 22.5488 0.422652C22.8785 0.299492 23.2419 0.30176 23.57 0.429023L21.708 2.90002L19.186 6.18302C19.116 6.2455 19.0599 6.32207 19.0216 6.40772C18.9832 6.49337 18.9634 6.58617 18.9634 6.68002C18.9634 6.77388 18.9832 6.86667 19.0216 6.95232C19.0599 7.03797 19.116 7.11455 19.186 7.17702L23.99 13.589L24 13.588ZM0.00201311 6.57602L0.422013 4.50102C1.57601 0.398024 6.28001 -1.30898 9.51601 1.23102C11.411 2.72002 11.884 4.82802 11.791 7.20402H1.11601C0.943013 11.447 4.00501 14.009 7.92001 12.7C8.55458 12.4714 9.12258 12.0891 9.57317 11.5872C10.0238 11.0853 10.3429 10.4795 10.502 9.82402C10.709 9.15802 11.05 9.04402 11.676 9.23602C11.5715 10.0483 11.2842 10.8264 10.8358 11.5118C10.3874 12.1971 9.78948 12.7719 9.08701 13.193C7.92651 13.8282 6.59485 14.0799 5.28258 13.9124C3.9703 13.7448 2.74466 13.1664 1.78101 12.26C0.828356 11.1872 0.25245 9.83243 0.141013 8.40202C0.141013 8.16702 0.0610131 7.94702 0.00701311 7.73602C0.00213563 7.34971 -0.000197752 6.96337 1.31065e-05 6.57702L0.00201311 6.57602ZM1.12901 6.29002H10.783C10.723 3.21402 8.78201 1.03202 6.19301 1.01202C3.31101 0.972023 1.24901 3.10602 1.12201 6.27602L1.12901 6.29002Z" fill="#F22222"/>
</svg>
