<svg width="64" height="17" viewBox="0 0 64 17" fill="none" xmlns="http://www.w3.org/2000/svg">
<g clip-path="url(#clip0_411_1072)">
<path d="M60.9408 13.8413C60.3154 13.8413 59.7499 13.6956 59.2444 13.4043C58.7475 13.1129 58.3577 12.7103 58.0749 12.1963C57.7922 11.6736 57.6509 11.091 57.6509 10.4484C57.6509 9.83165 57.7837 9.2662 58.0493 8.75203C58.3148 8.24578 58.6809 7.84403 59.1476 7.54678L59.1931 7.51828C59.6814 7.20995 60.2383 7.05578 60.8637 7.05578C61.5063 7.05578 62.0632 7.19711 62.5344 7.47978C63.0142 7.76253 63.3784 8.15665 63.6269 8.66215C63.8753 9.15899 63.9995 9.73303 63.9996 10.3843C63.9996 10.4614 63.9953 10.5384 63.9867 10.6155L63.9751 10.7264C63.9742 10.7356 63.9738 10.7414 63.9738 10.744H59.0646C59.1074 11.3267 59.3173 11.7765 59.6943 12.0934C60.0713 12.4105 60.4997 12.569 60.9793 12.5689C61.7162 12.5689 62.2817 12.2262 62.6758 11.5408L63.8839 12.1192C63.6012 12.6418 63.207 13.0617 62.7014 13.3787C62.2045 13.687 61.6177 13.8412 60.9408 13.8413ZM62.5602 9.66453C62.543 9.45895 62.4745 9.24903 62.3546 9.03478C62.2346 8.82061 62.0461 8.6407 61.7891 8.49503C61.5406 8.34086 61.2279 8.26378 60.8509 8.26378C60.4311 8.26378 60.0669 8.39228 59.7584 8.64928C59.4587 8.90628 59.2531 9.2447 59.1417 9.66453H62.5602ZM54.5482 13.8413C53.8199 13.8413 53.2159 13.6742 52.7362 13.34C52.2649 12.9974 51.9308 12.569 51.7337 12.0549L52.9932 11.5152C53.1389 11.8664 53.3488 12.132 53.6229 12.3119C53.9057 12.4919 54.2141 12.5819 54.5482 12.5819C54.8994 12.5819 55.1865 12.5176 55.4093 12.389C55.6321 12.2519 55.7434 12.0763 55.7434 11.8622C55.7434 11.6651 55.6608 11.5034 55.4956 11.3772L55.4734 11.3609C55.2935 11.2239 54.998 11.1039 54.5868 11.001L53.7128 10.7955C53.2331 10.684 52.8176 10.4784 52.4663 10.1787C52.1236 9.87015 51.9522 9.47174 51.9522 8.9834C51.9522 8.40482 52.1861 7.94524 52.6539 7.60465L52.6848 7.58253C53.1732 7.23128 53.7729 7.05565 54.4839 7.05565C55.0751 7.05565 55.5978 7.1799 56.0519 7.4284C56.5145 7.67674 56.8486 8.03657 57.0542 8.5079L55.8077 9.03478C55.6877 8.76928 55.5035 8.5722 55.2551 8.44353C55.0066 8.3152 54.7367 8.25099 54.4454 8.2509C54.1768 8.2509 53.9391 8.30886 53.7324 8.42478L53.6999 8.44353C53.4858 8.56353 53.3787 8.72636 53.3787 8.93203C53.3787 9.11195 53.4515 9.25761 53.5972 9.36903C53.7447 9.47553 53.9706 9.56636 54.2749 9.64153L55.2679 9.88303C55.9104 10.0458 56.3902 10.2942 56.7073 10.6284C57.0242 10.9541 57.1827 11.3482 57.1828 11.8108C57.1828 12.1742 57.0752 12.5059 56.8601 12.8058L56.8358 12.8389C56.6131 13.1472 56.3004 13.3914 55.8977 13.5714C55.5035 13.7514 55.0537 13.8413 54.5482 13.8413ZM47.7852 13.8414C47.331 13.8414 46.9198 13.7514 46.5514 13.5715C46.1917 13.383 45.9047 13.126 45.6903 12.8004C45.4848 12.4662 45.382 12.0893 45.3819 11.6695C45.3819 11.0012 45.6304 10.4743 46.1273 10.0888C46.6327 9.7032 47.2711 9.5104 48.0423 9.5104C48.719 9.5104 49.2973 9.62607 49.7773 9.8574V9.5874C49.7773 9.21357 49.6322 8.9042 49.3421 8.65928L49.3146 8.6364C49.0147 8.3794 48.6505 8.2509 48.2221 8.2509C47.571 8.2509 47.0484 8.51649 46.6543 9.04765L45.5748 8.30228C45.8747 7.89953 46.2473 7.59107 46.6928 7.3769C47.147 7.16274 47.6568 7.05565 48.2222 7.05565C49.138 7.05565 49.8479 7.28232 50.3518 7.73565L50.3812 7.76253C50.8952 8.22511 51.1522 8.88053 51.1523 9.72878V13.6357H49.7773V12.8518H49.7001C49.4945 13.1431 49.2332 13.383 48.9161 13.5714C48.5992 13.7514 48.2222 13.8414 47.7852 13.8414ZM48.0164 12.6719C48.3335 12.6719 48.6249 12.5948 48.8904 12.4407C49.1646 12.2778 49.3788 12.0679 49.5329 11.8109C49.6958 11.5453 49.7772 11.2626 49.7772 10.9627C49.3231 10.7142 48.839 10.5899 48.3249 10.5899C47.8537 10.5899 47.4853 10.6927 47.2198 10.8984C46.9542 11.1041 46.8214 11.3654 46.8214 11.6823C46.8214 11.9736 46.9371 12.2135 47.1683 12.402C47.4083 12.582 47.6909 12.672 48.0164 12.6719ZM41.8541 13.8414C41.3913 13.8414 40.9758 13.7429 40.6074 13.5458C40.2475 13.3488 39.9777 13.1003 39.7978 12.8004H39.7207V13.6358H38.3841V4.4339H39.7978V7.19703L39.7207 8.08378H39.7978C39.9777 7.79245 40.2476 7.54828 40.6074 7.35128C40.9758 7.1542 41.3913 7.05565 41.8541 7.05565C42.4024 7.05565 42.9079 7.20132 43.3704 7.49265C43.8266 7.77457 44.1904 8.16478 44.4617 8.66328L44.4886 8.71353C44.7713 9.22745 44.9127 9.80578 44.9127 10.4485C44.9127 11.071 44.78 11.6332 44.5147 12.135L44.4886 12.1834C44.2144 12.6974 43.8417 13.1044 43.3704 13.4043C42.9079 13.6956 42.4024 13.8414 41.8541 13.8414ZM41.6098 12.5433C41.944 12.5433 42.2524 12.4576 42.5351 12.2863C42.8263 12.1149 43.0577 11.8707 43.2291 11.5538C43.4091 11.2282 43.4991 10.8597 43.4991 10.4484C43.4991 10.0372 43.4091 9.67307 43.2291 9.35615C43.0578 9.03049 42.8265 8.78199 42.5351 8.61065C42.2524 8.43932 41.944 8.35365 41.6098 8.35365C41.2757 8.35365 40.9629 8.43932 40.6717 8.61065C40.3889 8.78199 40.1576 9.02615 39.9777 9.34315C39.8064 9.66024 39.7208 10.0287 39.7207 10.4484C39.7207 10.8683 39.8064 11.2367 39.9777 11.5537C40.1577 11.8707 40.389 12.1148 40.6717 12.2862C40.9629 12.4577 41.2757 12.5434 41.6098 12.5433ZM34.4063 7.05578C35.0488 7.05578 35.6057 7.19711 36.0769 7.47978C36.5568 7.76253 36.9209 8.15665 37.1694 8.66215C37.4178 9.15899 37.542 9.73303 37.5421 10.3843C37.5421 10.4614 37.5378 10.5384 37.5293 10.6155L37.5191 10.7103C37.5178 10.7215 37.5169 10.7328 37.5164 10.744H32.6071C32.6499 11.3267 32.8598 11.7765 33.2368 12.0934C33.6138 12.4105 34.0422 12.569 34.5219 12.5689C35.2589 12.5689 35.8243 12.2262 36.2183 11.5408L37.4264 12.1192C37.1437 12.6418 36.7496 13.0617 36.2441 13.3787C35.7472 13.687 35.1604 13.8412 34.4834 13.8413C33.858 13.8413 33.2926 13.6956 32.7871 13.4043C32.2901 13.1129 31.9002 12.7103 31.6176 12.1963C31.3348 11.6736 31.1934 11.091 31.1934 10.4484C31.1934 9.83165 31.3262 9.2662 31.5918 8.75203C31.866 8.22953 32.2472 7.81828 32.7356 7.51828C33.224 7.20995 33.7809 7.05578 34.4063 7.05578ZM30.5343 7.06853C30.8427 7.06853 31.0955 7.11136 31.2926 7.19703V8.67503C31.0012 8.52936 30.6757 8.45653 30.3158 8.45653C29.8532 8.45653 29.4633 8.63645 29.1463 8.99628C28.838 9.34753 28.6838 9.7802 28.6837 10.2943V13.6355H27.2699V7.2614H28.6066V8.2124H28.6837C28.8159 7.89849 29.0517 7.63632 29.3909 7.4259L29.4291 7.40278C29.7889 7.18003 30.1573 7.06853 30.5343 7.06853ZM34.3934 8.26378C33.9736 8.26378 33.6095 8.39232 33.3011 8.6494C33.0012 8.9064 32.7956 9.24482 32.6842 9.66465H36.1027C36.0856 9.45907 36.0171 9.24915 35.8971 9.0349C35.7771 8.82074 35.5886 8.64082 35.3317 8.49515C35.0832 8.34099 34.7704 8.26378 34.3934 8.26378ZM25.2524 6.18203C24.9869 6.18203 24.7599 6.09203 24.5713 5.91203C24.3913 5.72361 24.3014 5.49661 24.3014 5.23103C24.3014 4.96545 24.3914 4.74265 24.5713 4.56265C24.7598 4.37432 24.9869 4.28011 25.2526 4.28003C25.5181 4.28003 25.7408 4.37424 25.9208 4.56265C26.1093 4.74265 26.2036 4.96545 26.2036 5.23103C26.2036 5.49653 26.1093 5.72357 25.9208 5.91215C25.7408 6.09215 25.518 6.18211 25.2524 6.18203ZM24.5457 7.26153H25.9593V13.6359H24.5456L24.5457 7.26153ZM18.1064 4.43415H23.6968V5.80928H19.5457V8.45678H23.2856V9.81865H19.5457V13.6355H18.1064V4.43415Z" fill="white"/>
<path d="M4.21289 16.4069C4.9387 16.6986 5.70985 16.8615 6.49164 16.8882C7.54324 16.9257 8.58888 16.715 9.54389 16.2732C8.44452 15.8408 7.43543 15.2072 6.56839 14.4048C6.00953 15.3 5.18646 15.9996 4.21289 16.4069Z" fill="#FF9100"/>
<path d="M6.5678 14.4053C4.6078 12.5926 3.4188 9.96885 3.5193 7.09122C3.52255 6.99772 3.52755 6.90435 3.5333 6.81097C2.66286 6.58522 1.74807 6.59479 0.882549 6.83872C0.342577 7.78349 0.0410801 8.84566 0.00417442 9.93322C-0.0973256 12.8402 1.66192 15.3802 4.2123 16.4073C5.18612 16.0005 6.00929 15.3008 6.5678 14.4053Z" fill="#FFC400"/>
<path d="M6.56808 14.4049C7.0389 13.6517 7.30249 12.7875 7.3322 11.8997C7.41683 9.47667 5.78795 7.39242 3.53345 6.81079C3.52758 6.9041 3.52296 6.99748 3.51958 7.09092C3.41908 9.96867 4.60808 12.5922 6.56808 14.4049Z" fill="#FF9100"/>
<path d="M7.07998 0C5.79573 1.02863 4.78185 2.385 4.16848 3.9475C3.80919 4.86336 3.59454 5.82954 3.53223 6.81138C5.7866 7.393 7.41548 9.47738 7.33085 11.9004C7.30063 12.7881 7.03708 13.6522 6.56673 14.4058C7.43361 15.2083 8.44274 15.8418 9.54223 16.2739C11.772 15.2432 13.3539 13.0255 13.4455 10.4023C13.5049 8.70263 12.8517 7.18787 11.9291 5.90925C10.9547 4.557 7.07998 0 7.07998 0Z" fill="#DD2C00"/>
</g>
<defs>
<clipPath id="clip0_411_1072">
<rect width="64" height="17" fill="white"/>
</clipPath>
</defs>
</svg>
