<svg width="512" height="135" viewBox="0 0 512 135" fill="none" xmlns="http://www.w3.org/2000/svg">
<g clip-path="url(#clip0_411_1060)">
<path d="M39.689 13.8101C34.489 7.64008 30.01 1.37408 29.096 0.0720753C29.0742 0.0492955 29.0481 0.0311635 29.0191 0.0187753C28.9902 0.00638712 28.959 0 28.9275 0C28.896 0 28.8648 0.00638712 28.8358 0.0187753C28.8069 0.0311635 28.7807 0.0492955 28.759 0.0720753C27.844 1.37408 23.366 7.64008 18.166 13.8101C-26.469 70.7361 25.196 109.152 25.196 109.152L25.629 109.442C26.014 115.37 26.977 123.902 26.977 123.902H30.829C30.829 123.902 31.792 115.418 32.177 109.442L32.611 109.104C32.659 109.152 84.323 70.7361 39.689 13.8101ZM28.903 108.285C28.903 108.285 26.592 106.308 25.966 105.297V105.2L28.759 43.2131C28.759 43.0201 29.048 43.0201 29.048 43.2131L31.84 105.2V105.297C31.214 106.308 28.903 108.285 28.903 108.285Z" fill="#01EC64"/>
<path d="M125.59 95.636L104.06 43.053L104.013 42.908H87.2633V46.442H89.9653C90.7863 46.442 91.5583 46.782 92.1383 47.362C92.7173 47.943 93.0073 48.718 93.0073 49.542L92.5243 102.462C92.5243 104.109 91.1733 105.464 89.5313 105.513L86.7803 105.561V109.047H103.096V105.561L101.406 105.513C99.7653 105.464 98.4133 104.109 98.4133 102.463V52.59L121.873 109.046C122.211 109.869 122.983 110.402 123.853 110.402C124.721 110.402 125.493 109.869 125.831 109.046L148.761 53.849L149.099 102.462C149.099 104.156 147.747 105.512 146.057 105.56H144.319V109.046H163.435V105.56H160.828C159.188 105.56 157.835 104.156 157.788 102.51L157.642 49.588C157.642 48.7841 157.953 48.0115 158.512 47.4334C159.07 46.8553 159.832 46.517 160.635 46.49L163.435 46.441V42.907H147.119L125.59 95.636ZM275.703 104.64C275.171 104.107 274.88 103.38 274.88 102.506V76.51C274.88 71.563 273.429 67.682 270.525 64.918C267.669 62.153 263.701 60.747 258.765 60.747C251.843 60.747 246.375 63.56 242.551 69.089C242.503 69.186 242.358 69.235 242.213 69.235C242.068 69.235 241.971 69.137 241.971 68.992L240.18 62.056H237.179L229.484 66.47V68.895H231.468C232.388 68.895 233.162 69.137 233.695 69.623C234.227 70.108 234.517 70.835 234.517 71.853V102.458C234.517 103.331 234.227 104.059 233.695 104.593C233.162 105.126 232.436 105.417 231.565 105.417H229.629V108.957H247.342V105.417H245.407C244.535 105.417 243.809 105.126 243.277 104.593C242.745 104.059 242.454 103.331 242.454 102.458V82.184C242.454 79.614 243.035 77.043 244.1 74.52C245.213 72.047 246.858 69.961 249.036 68.36C251.214 66.759 253.828 65.984 256.828 65.984C260.216 65.984 262.781 67.051 264.378 69.185C265.975 71.319 266.798 74.084 266.798 77.382V102.409C266.798 103.282 266.508 104.009 265.975 104.543C265.442 105.077 264.717 105.367 263.845 105.367H261.91V108.908H279.623V105.368H277.688C276.962 105.465 276.284 105.174 275.703 104.64ZM437.536 46.867C432.64 44.26 427.168 42.907 421.263 42.907H398.223V46.432H400.478C401.342 46.432 402.11 46.77 402.878 47.542C403.598 48.267 403.982 49.088 403.982 49.957V101.907C403.982 102.777 403.599 103.597 402.878 104.322C402.158 105.046 401.342 105.432 400.478 105.432H398.222V108.957H421.263C427.168 108.957 432.64 107.605 437.536 104.997C442.432 102.389 446.416 98.527 449.296 93.603C452.177 88.679 453.665 82.74 453.665 75.98C453.665 69.221 452.177 63.33 449.297 58.358C446.369 53.337 442.431 49.522 437.536 46.867ZM444.402 75.884C444.402 82.064 443.298 87.278 441.137 91.479C438.977 95.679 436.097 98.817 432.545 100.846C428.993 102.873 425.056 103.887 420.832 103.887H416.176C415.312 103.887 414.544 103.549 413.776 102.777C413.056 102.052 412.672 101.232 412.672 100.363V51.357C412.672 50.487 413.008 49.716 413.776 48.943C414.496 48.219 415.312 47.833 416.176 47.833H420.832C425.056 47.833 428.992 48.846 432.545 50.874C436.098 52.902 438.977 56.04 441.137 60.241C443.297 64.489 444.402 69.752 444.402 75.884ZM508.13 79.409C505.999 76.946 501.886 74.87 497.05 73.759C503.728 70.428 507.16 65.745 507.16 59.709C507.16 56.427 506.293 53.481 504.548 50.971C502.808 48.461 500.338 46.432 497.195 45.032C494.047 43.632 490.369 42.908 486.208 42.908H460.127V46.432H462.207C463.078 46.432 463.853 46.77 464.627 47.542C465.353 48.267 465.74 49.088 465.74 49.957V101.907C465.74 102.777 465.353 103.597 464.627 104.322C463.901 105.046 463.078 105.432 462.207 105.432H459.933V108.957H488.243C492.548 108.957 496.563 108.233 500.194 106.784C503.824 105.336 506.727 103.211 508.809 100.411C510.936 97.611 512.001 94.182 512.001 90.223C511.953 85.975 510.694 82.353 508.13 79.409ZM475.66 102.825C474.934 102.101 474.547 101.28 474.547 100.411V77.09H488C492.74 77.09 496.369 78.2966 498.886 80.71C501.402 83.1246 502.661 86.2633 502.661 90.126C502.661 92.443 502.077 94.713 501.017 96.789C499.903 98.913 498.254 100.603 496.032 101.907C493.852 103.21 491.143 103.887 488 103.887H478.077C477.207 103.887 476.432 103.548 475.658 102.824M474.594 72.117V51.405C474.594 50.536 474.932 49.764 475.706 48.991C476.432 48.267 477.255 47.881 478.126 47.881H484.514C489.108 47.881 492.498 49.04 494.629 51.261C496.755 53.53 497.82 56.427 497.82 59.999C497.82 63.669 496.803 66.614 494.821 68.835C492.835 71.007 489.836 72.118 485.869 72.118L474.594 72.117ZM208.27 63.825C204.572 61.805 200.442 60.745 195.976 60.745C191.628 60.745 187.553 61.704 183.972 63.665L183.683 63.825C179.985 65.846 177.056 68.781 174.895 72.486C172.735 76.191 171.63 80.522 171.63 85.333C171.63 90.145 172.734 94.476 174.895 98.181C177.056 101.886 179.985 104.821 183.683 106.841C187.381 108.861 191.511 109.921 195.976 109.921C200.325 109.921 204.4 108.963 207.98 107.003L208.27 106.842C211.967 104.821 214.897 101.886 217.058 98.181C219.218 94.476 220.323 90.145 220.323 85.333C220.323 80.522 219.218 76.191 217.058 72.486C214.898 68.781 211.968 65.845 208.27 63.825ZM211.823 85.334C211.823 91.253 210.383 96.064 207.501 99.529C204.668 102.993 200.779 104.773 195.976 104.773C191.26 104.773 187.424 103.056 184.604 99.713L184.452 99.529C181.57 96.064 180.129 91.253 180.129 85.334C180.129 79.524 181.519 74.78 184.296 71.33L184.452 71.14C187.284 67.676 191.175 65.895 195.976 65.895C200.779 65.895 204.668 67.675 207.501 71.14C210.383 74.605 211.823 79.416 211.823 85.334ZM378.454 63.826C374.756 61.806 370.627 60.746 366.161 60.746C361.813 60.746 357.737 61.705 354.157 63.666L353.867 63.826C350.17 65.847 347.241 68.782 345.08 72.487C342.919 76.192 341.814 80.523 341.814 85.334C341.814 90.146 342.919 94.477 345.08 98.182C347.241 101.887 350.17 104.822 353.868 106.842C357.565 108.863 361.695 109.922 366.161 109.922C370.509 109.922 374.585 108.964 378.165 107.004L378.455 106.843C382.152 104.822 385.081 101.887 387.242 98.182C389.403 94.477 390.507 90.146 390.507 85.334C390.507 80.523 389.403 76.192 387.242 72.487C385.081 68.782 382.104 65.846 378.454 63.826ZM382.008 85.335C382.008 91.254 380.567 96.065 377.686 99.53C374.852 102.994 370.963 104.774 366.161 104.774C361.444 104.774 357.608 103.057 354.789 99.714L354.636 99.53C351.755 96.065 350.314 91.254 350.314 85.335C350.314 79.477 351.703 74.779 354.48 71.331L354.636 71.141C357.469 67.677 361.359 65.896 366.161 65.896C370.963 65.896 374.852 67.676 377.686 71.141C380.52 74.606 382.008 79.417 382.008 85.335ZM309.822 60.748C305.953 60.748 302.422 61.5696 299.23 63.213C296.038 64.856 293.523 67.08 291.734 69.932C289.955 72.6993 289.014 75.9227 289.026 79.213C289.026 82.21 289.703 84.965 291.106 87.431C292.459 89.799 294.297 91.781 296.619 93.424L289.703 102.802C288.833 103.962 288.736 105.509 289.364 106.766C290.041 108.071 291.299 108.844 292.75 108.844H294.733C292.879 110.095 291.38 111.568 290.322 113.304L290.186 113.533C288.929 115.611 288.3 117.787 288.3 120.01C288.3 124.093 290.073 127.477 293.572 130.023L293.765 130.161C297.345 132.723 302.374 134.028 308.709 134.028C313.11 134.028 317.318 133.303 321.139 131.901C324.897 130.54 327.97 128.539 330.271 125.945L330.471 125.715C332.841 123.007 334.051 119.72 334.051 115.95C334.051 111.986 332.6 109.182 329.215 106.476C326.313 104.204 321.767 102.996 316.108 102.996H296.764C296.736 102.993 296.709 102.982 296.687 102.964L296.667 102.947L296.658 102.927C296.648 102.896 296.632 102.837 296.667 102.802L301.697 96.035C302.888 96.5898 304.137 97.0111 305.421 97.291C306.581 97.533 307.887 97.63 309.338 97.63C313.4 97.63 317.076 96.808 320.268 95.165C323.46 93.521 326.023 91.298 327.861 88.445C329.698 85.642 330.617 82.5 330.617 79.165C330.617 75.588 328.877 69.062 324.137 65.727C324.137 65.697 324.154 65.686 324.168 65.681L324.185 65.678L334.583 66.838V62.053H317.946C315.335 61.231 312.626 60.748 309.822 60.748ZM315.625 91.008C313.787 91.974 311.805 92.506 309.822 92.506C306.582 92.506 303.728 91.346 301.31 89.074C298.892 86.802 297.683 83.467 297.683 79.213C297.683 74.959 298.892 71.623 301.31 69.352C303.728 67.081 306.581 65.92 309.822 65.92C311.768 65.92 313.626 66.364 315.395 67.294L315.625 67.418C317.463 68.385 318.962 69.884 320.171 71.866C321.331 73.848 321.961 76.313 321.961 79.213C321.961 82.162 321.38 84.627 320.171 86.56C319.011 88.542 317.463 90.041 315.625 91.008ZM302.519 108.795H315.625C319.252 108.795 321.574 109.52 323.121 111.067C324.668 112.614 325.442 114.692 325.442 117.109C325.442 120.638 324.04 123.539 321.235 125.713C318.43 127.889 314.658 129 310.015 129C305.952 129 302.567 128.082 300.1 126.342C297.633 124.602 296.377 121.942 296.377 118.559C296.377 116.432 296.957 114.45 298.118 112.71C299.278 110.97 300.681 109.713 302.518 108.795" fill="white"/>
</g>
<defs>
<clipPath id="clip0_411_1060">
<rect width="512" height="135" fill="white"/>
</clipPath>
</defs>
</svg>
