<svg width="16" height="16" viewBox="0 0 16 16" fill="none" xmlns="http://www.w3.org/2000/svg">
<path d="M10.65 3C10.6102 3 10.5721 3.0158 10.5439 3.04393C10.5158 3.07206 10.5 3.11022 10.5 3.15V5.8985L9.877 5.535C9.83852 5.51231 9.79467 5.50034 9.75 5.50034C9.70533 5.50034 9.66148 5.51231 9.623 5.535L8.126 6.408C8.08759 6.42994 8.05569 6.46168 8.03355 6.49998C8.01142 6.53828 7.99984 6.58176 8 6.626V8.374C8 8.464 8.048 8.547 8.126 8.592L9.623 9.465C9.66148 9.48769 9.70533 9.49966 9.75 9.49966C9.79467 9.49966 9.83852 9.48769 9.877 9.465L11.374 8.592C11.4124 8.57006 11.4443 8.53832 11.4664 8.50002C11.4886 8.46172 11.5002 8.41824 11.5 8.374V3.615C11.4999 3.57138 11.4884 3.52855 11.4667 3.49074C11.4449 3.45294 11.4137 3.42148 11.376 3.3995L10.7245 3.0205C10.702 3.00736 10.6765 3.0003 10.6505 3H10.65ZM5.75 5.501C5.70539 5.5008 5.66154 5.51254 5.623 5.535L4.126 6.408C4.08759 6.42994 4.05569 6.46168 4.03355 6.49998C4.01142 6.53828 3.99984 6.58176 4 6.626V8.374C4 8.464 4.048 8.547 4.126 8.592L5.623 9.465C5.7015 9.51 5.798 9.51 5.877 9.465L7.374 8.592C7.41241 8.57006 7.44431 8.53832 7.46645 8.50002C7.48858 8.46172 7.50016 8.41824 7.5 8.374V6.626C7.50016 6.58176 7.48858 6.53828 7.46645 6.49998C7.44431 6.46168 7.41241 6.42994 7.374 6.408L5.877 5.535C5.83846 5.51254 5.79461 5.5008 5.75 5.501ZM13.75 5.501C13.7054 5.5008 13.6615 5.51254 13.623 5.535L12.126 6.408C12.0876 6.42994 12.0557 6.46168 12.0336 6.49998C12.0114 6.53828 11.9998 6.58176 12 6.626V8.374C12 8.464 12.048 8.547 12.126 8.592L13.578 9.4695C13.6164 9.49269 13.6604 9.50511 13.7052 9.50546C13.7501 9.50581 13.7942 9.49408 13.833 9.4715L14.547 9.0565C14.5638 9.04661 14.5777 9.0325 14.5874 9.01557C14.5971 8.99865 14.6022 8.97949 14.6022 8.96C14.6022 8.94051 14.5971 8.92135 14.5874 8.90443C14.5777 8.8875 14.5638 8.87339 14.547 8.8635L13 7.952V7.055L13.75 6.6185L14.5 7.055V7.68C14.5 7.7635 14.57 7.7765 14.617 7.7485L15.376 7.307C15.4137 7.28502 15.4449 7.25356 15.4667 7.21576C15.4884 7.17795 15.4999 7.13512 15.5 7.0915V6.6265C15.5002 6.58226 15.4886 6.53878 15.4664 6.50048C15.4443 6.46218 15.4124 6.43044 15.374 6.4085L13.877 5.5355C13.8385 5.51304 13.7946 5.5013 13.75 5.5015V5.501ZM1.75 5.502C1.70539 5.5018 1.66154 5.51354 1.623 5.536L0.126 6.408C0.0877827 6.43041 0.0560642 6.4624 0.0339698 6.5008C0.0118754 6.5392 0.00016761 6.5827 0 6.627L0 8.8585C0 8.9675 0.118 9.035 0.212 8.9805L0.876 8.594C0.913744 8.57197 0.945056 8.54044 0.966813 8.50254C0.98857 8.46464 1.00001 8.4217 1 8.378V7.0565L1.75 6.619L2.5 7.0565V8.378C2.50007 8.42162 2.51156 8.46445 2.53331 8.50226C2.55506 8.54006 2.58633 8.57152 2.624 8.5935L3.288 8.9805C3.30944 8.993 3.3338 8.99961 3.35861 8.99968C3.38343 8.99975 3.40782 8.99327 3.42933 8.98089C3.45084 8.96851 3.4687 8.95068 3.48111 8.92919C3.49351 8.9077 3.50003 8.88331 3.5 8.8585V6.627C3.49983 6.5827 3.48812 6.5392 3.46603 6.5008C3.44394 6.4624 3.41222 6.43041 3.374 6.408L1.877 5.536C1.83846 5.51354 1.79461 5.5018 1.75 5.502ZM9.75 6.618L10.5 7.0555V7.9445L9.75 8.382L9 7.9445V7.055L9.75 6.6175V6.618ZM13.75 7.002L13.3215 7.252V7.751L13.75 8L14.1785 7.751V7.252L13.75 7.002ZM7.703 8.999C7.65104 8.99859 7.59987 9.01169 7.5545 9.037L6.1485 9.85C6.10339 9.87581 6.0659 9.91308 6.03982 9.95803C6.01375 10.003 6.00001 10.054 6 10.106V11.729C6 11.8335 6.0585 11.932 6.1485 11.985L6.5185 12.196C6.696 12.2835 6.7615 12.2835 6.842 12.2835C7.107 12.2835 7.258 12.125 7.258 11.845V10.2415C7.25828 10.236 7.25741 10.2305 7.25547 10.2253C7.25352 10.2202 7.25052 10.2155 7.24667 10.2115C7.24282 10.2076 7.2382 10.2045 7.23309 10.2024C7.22799 10.2004 7.22251 10.1994 7.217 10.1995H7.039C7.02786 10.1995 7.01718 10.2039 7.0093 10.2118C7.00143 10.2197 6.997 10.2304 6.997 10.2415V11.845C6.997 11.9665 6.8685 12.0915 6.659 11.987L6.274 11.765C6.26772 11.761 6.26252 11.7556 6.25885 11.7491C6.25519 11.7427 6.25318 11.7354 6.253 11.728V10.105C6.253 10.0905 6.26 10.0735 6.2745 10.066L7.6805 9.2555C7.68722 9.25173 7.6948 9.24976 7.7025 9.24976C7.7102 9.24976 7.71778 9.25173 7.7245 9.2555L9.132 10.0655C9.1465 10.0735 9.1535 10.088 9.1535 10.105V11.728C9.15317 11.7357 9.15106 11.7433 9.14733 11.75C9.1436 11.7568 9.13835 11.7626 9.132 11.767L7.7245 12.5805C7.71778 12.5843 7.7102 12.5862 7.7025 12.5862C7.6948 12.5862 7.68722 12.5843 7.6805 12.5805L7.3215 12.3665C7.3115 12.3615 7.2965 12.359 7.287 12.364C7.22115 12.4061 7.14981 12.4389 7.075 12.4615C7.0505 12.469 7.0175 12.484 7.088 12.523L7.5545 12.8005C7.6001 12.8254 7.65107 12.8387 7.703 12.8395C7.75472 12.8399 7.80549 12.8257 7.8495 12.7985L9.256 11.985C9.30111 11.9592 9.3386 11.9219 9.36468 11.877C9.39075 11.832 9.40449 11.781 9.4045 11.729V10.106C9.40399 10.0541 9.39004 10.0033 9.36401 9.95841C9.33799 9.91355 9.30077 9.87619 9.256 9.85L7.8495 9.0375C7.80472 9.01252 7.75428 8.99944 7.703 8.9995V8.999ZM9.8965 9.748C9.86104 9.74807 9.82595 9.75511 9.79321 9.76874C9.76048 9.78237 9.73075 9.80232 9.70573 9.82743C9.6807 9.85255 9.66087 9.88235 9.64736 9.91514C9.63385 9.94792 9.62693 9.98304 9.627 10.0185C9.62707 10.054 9.63411 10.0891 9.64774 10.1218C9.66137 10.1545 9.68132 10.1842 9.70643 10.2093C9.73155 10.2343 9.76135 10.2541 9.79414 10.2676C9.82692 10.2811 9.86204 10.2881 9.8975 10.288C9.96911 10.2879 10.0377 10.2593 10.0883 10.2086C10.1388 10.1578 10.1671 10.0891 10.167 10.0175C10.1669 9.94589 10.1383 9.87727 10.0876 9.82673C10.0368 9.77619 9.96811 9.74787 9.8965 9.748ZM9.8935 9.791C10.0205 9.791 10.1235 9.891 10.1235 10.0175C10.1226 10.0782 10.0981 10.1362 10.0551 10.1791C10.0122 10.2221 9.95422 10.2466 9.8935 10.2475C9.83312 10.2468 9.77546 10.2223 9.73319 10.1791C9.69091 10.136 9.66747 10.0779 9.668 10.0175C9.6678 9.98778 9.67349 9.95832 9.68474 9.93082C9.69599 9.90332 9.71258 9.87831 9.73354 9.85725C9.75451 9.83619 9.77944 9.8195 9.80689 9.80813C9.83435 9.79675 9.86378 9.79093 9.8935 9.791ZM9.795 9.8645V10.168H9.8525V10.047H9.9065C9.9285 10.047 9.9335 10.056 9.9385 10.073C9.9385 10.0755 9.9475 10.1545 9.95 10.169H10.0125C10.0045 10.1427 9.99963 10.1155 9.998 10.088C9.991 10.049 9.989 10.022 9.9475 10.0195C9.9695 10.012 10.006 10.0005 10.006 9.9445C10.006 9.864 9.936 9.8645 9.8995 9.8645H9.795ZM9.8525 9.913H9.9015C9.9165 9.913 9.9455 9.913 9.9455 9.954C9.9455 9.971 9.938 9.999 9.8985 9.998H9.8525V9.913ZM8.08 10.161C7.6785 10.161 7.44 10.3325 7.44 10.6145C7.44 10.9235 7.679 11.006 8.0635 11.0445C8.5235 11.091 8.5595 11.157 8.5595 11.247C8.5595 11.405 8.4325 11.4705 8.1355 11.4705C7.763 11.4705 7.6815 11.3785 7.6545 11.1935C7.652 11.1735 7.6345 11.159 7.6125 11.159H7.4295C7.42399 11.1589 7.41851 11.1599 7.4134 11.1619C7.4083 11.164 7.40368 11.1671 7.39983 11.171C7.39598 11.175 7.39298 11.1797 7.39103 11.1848C7.38909 11.19 7.38822 11.1955 7.3885 11.201C7.3885 11.437 7.5175 11.7195 8.133 11.7195C8.5845 11.7195 8.84 11.5445 8.84 11.2375C8.84 10.9335 8.635 10.8525 8.202 10.794C7.764 10.7355 7.7205 10.706 7.7205 10.6035C7.7205 10.5185 7.7565 10.407 8.0805 10.407C8.3695 10.407 8.4775 10.4705 8.5215 10.665C8.52683 10.6853 8.5395 10.6958 8.5595 10.6965H8.742C8.75433 10.6958 8.76417 10.6918 8.7715 10.6845C8.7795 10.6755 8.78283 10.6652 8.7815 10.6535C8.7525 10.3175 8.5305 10.161 8.08 10.161Z" fill="#6DAA3F"/>
</svg>
