<svg width="16" height="16" viewBox="0 0 16 16" fill="none" xmlns="http://www.w3.org/2000/svg">
<path d="M8.00039 7.0999C8.64242 7.0999 9.16289 6.57943 9.16289 5.9374C9.16289 5.29537 8.64242 4.7749 8.00039 4.7749C7.35836 4.7749 6.83789 5.29537 6.83789 5.9374C6.83789 6.57943 7.35836 7.0999 8.00039 7.0999Z" fill="#61DAFB"/>
<path d="M8.0002 10.2125C8.9127 11.1 9.8127 11.625 10.5377 11.625C10.7752 11.625 11.0002 11.575 11.1877 11.4625C11.8377 11.0875 12.0752 10.15 11.8502 8.81245C11.8127 8.57495 11.7627 8.33745 11.7002 8.08745C11.9502 8.01245 12.1752 7.93745 12.4002 7.86245C13.6627 7.37495 14.3627 6.69995 14.3627 5.96245C14.3627 5.21245 13.6627 4.53745 12.4002 4.06245C12.1752 3.97495 11.9502 3.89995 11.7002 3.83745C11.7627 3.58745 11.8127 3.34995 11.8502 3.11245C12.0627 1.74995 11.8252 0.799951 11.1752 0.424951C10.9877 0.312451 10.7627 0.262451 10.5252 0.262451C9.8127 0.262451 8.9002 0.787451 7.9877 1.67495C7.0877 0.787451 6.1877 0.262451 5.4627 0.262451C5.2252 0.262451 5.0002 0.312451 4.8127 0.424951C4.1627 0.799951 3.9252 1.73745 4.1502 3.07495C4.1877 3.31245 4.2377 3.54995 4.3002 3.79995C4.0502 3.87495 3.8252 3.94995 3.6002 4.02495C2.3377 4.51245 1.6377 5.18745 1.6377 5.92495C1.6377 6.67495 2.3377 7.34995 3.6002 7.82495C3.8252 7.91245 4.0502 7.98745 4.3002 8.04995C4.2377 8.29995 4.1877 8.53745 4.1502 8.77495C3.9377 10.1125 4.1752 11.0625 4.8127 11.425C5.0002 11.5375 5.2252 11.5875 5.4627 11.5875C6.1877 11.6125 7.0877 11.0875 8.0002 10.2125ZM7.3002 8.52495C7.5252 8.53745 7.7627 8.53745 8.0002 8.53745C8.2377 8.53745 8.4752 8.53745 8.7002 8.52495C8.4752 8.82495 8.2377 9.09995 8.0002 9.36245C7.7627 9.09995 7.5252 8.82495 7.3002 8.52495ZM5.7502 7.23745C5.8752 7.44995 5.9877 7.64995 6.1252 7.84995C5.7377 7.79995 5.3752 7.73745 5.0252 7.66245C5.1377 7.32495 5.2627 6.97495 5.4127 6.62495C5.5127 6.82495 5.6252 7.03745 5.7502 7.23745ZM5.0252 4.22495C5.3752 4.14995 5.7377 4.08745 6.1252 4.03745C6.0002 4.23745 5.8752 4.43745 5.7502 4.64995C5.6252 4.86245 5.5127 5.06245 5.4127 5.27495C5.2502 4.91245 5.1252 4.56245 5.0252 4.22495ZM5.7127 5.93745C5.8752 5.59995 6.0502 5.26245 6.2502 4.92495C6.4377 4.59995 6.6502 4.27495 6.8627 3.94995C7.2377 3.92495 7.6127 3.91245 8.0002 3.91245C8.4002 3.91245 8.7752 3.92495 9.1377 3.94995C9.3627 4.27495 9.5627 4.59995 9.7502 4.92495C9.9502 5.26245 10.1252 5.59995 10.2877 5.93745C10.1252 6.27495 9.9502 6.61245 9.7502 6.94995C9.5627 7.27495 9.3502 7.59995 9.1377 7.92495C8.7627 7.94995 8.3877 7.96245 8.0002 7.96245C7.6002 7.96245 7.2252 7.94995 6.8627 7.92495C6.6377 7.59995 6.4377 7.27495 6.2502 6.94995C6.0502 6.61245 5.8752 6.27495 5.7127 5.93745ZM10.6002 5.26245L10.2627 4.63745C10.1377 4.42495 10.0252 4.22495 9.8877 4.02495C10.2752 4.07495 10.6377 4.13745 10.9877 4.21245C10.8752 4.56245 10.7502 4.91245 10.6002 5.26245ZM10.6002 6.61245C10.7502 6.96245 10.8752 7.31245 10.9877 7.64995C10.6377 7.72495 10.2752 7.78745 9.8877 7.83745C10.0127 7.63745 10.1377 7.43745 10.2627 7.22495C10.3752 7.03745 10.4877 6.82495 10.6002 6.61245ZM10.8877 10.95C10.7877 11.0125 10.6627 11.0375 10.5252 11.0375C9.9127 11.0375 9.1502 10.5375 8.4002 9.78745C8.7627 9.39995 9.1127 8.96245 9.4627 8.47495C10.0502 8.42495 10.6127 8.33745 11.1377 8.21245C11.2002 8.43745 11.2377 8.66245 11.2752 8.88745C11.4502 9.94995 11.3127 10.7125 10.8877 10.95ZM11.5377 4.36245C12.9377 4.76245 13.7752 5.37495 13.7752 5.93745C13.7752 6.42495 13.2002 6.91245 12.1877 7.29995C11.9877 7.37495 11.7627 7.44995 11.5377 7.51245C11.3752 6.99995 11.1752 6.47495 10.9252 5.93745C11.1752 5.39995 11.3877 4.87495 11.5377 4.36245ZM10.5377 0.837451C10.6752 0.837451 10.7877 0.862451 10.9002 0.924951C11.3127 1.16245 11.4627 1.91245 11.2877 2.98745C11.2502 3.19995 11.2002 3.42495 11.1502 3.66245C10.6252 3.54995 10.0627 3.46245 9.4752 3.39995C9.1377 2.91245 8.7752 2.47495 8.4127 2.08745C9.1627 1.34995 9.9252 0.837451 10.5377 0.837451ZM8.7002 3.34995C8.4752 3.33745 8.2377 3.33745 8.0002 3.33745C7.7627 3.33745 7.5252 3.33745 7.3002 3.34995C7.5252 3.04995 7.7627 2.77495 8.0002 2.51245C8.2377 2.77495 8.4752 3.06245 8.7002 3.34995ZM5.1127 0.924951C5.2127 0.862451 5.3377 0.837451 5.4752 0.837451C6.0877 0.837451 6.85019 1.33745 7.60019 2.08745C7.23769 2.47495 6.88769 2.91245 6.53769 3.39995C5.95019 3.44995 5.3877 3.53745 4.8627 3.66245C4.8002 3.43745 4.7627 3.21245 4.7252 2.98745C4.5502 1.92495 4.6877 1.17495 5.1127 0.924951ZM4.4627 7.51245C3.0627 7.11245 2.2252 6.49995 2.2252 5.93745C2.2252 5.44995 2.8002 4.96245 3.8127 4.57495C4.0127 4.49995 4.2377 4.42495 4.4627 4.36245C4.6252 4.87495 4.8252 5.39995 5.0752 5.93745C4.8252 6.47495 4.6127 7.01245 4.4627 7.51245ZM4.7252 8.88745C4.7627 8.67495 4.8127 8.44995 4.8627 8.21245C5.3877 8.32495 5.95019 8.41245 6.53769 8.47495C6.87519 8.96245 7.23769 9.39995 7.60019 9.78745C6.85019 10.525 6.0877 11.0375 5.4752 11.0375C5.3377 11.0375 5.2252 11.0125 5.1127 10.95C4.6877 10.7125 4.5502 9.94995 4.7252 8.88745ZM4.2002 14.0375C4.4752 13.7 4.4877 13.325 4.3377 12.95C4.1877 12.575 3.8752 12.4 3.4877 12.3875C3.0252 12.375 2.5502 12.3875 2.0877 12.3875H2.0002V15.625H2.3752V14.4H2.9627C3.0377 14.4 3.1002 14.425 3.1377 14.4875L3.8877 15.65C3.9002 15.675 3.9377 15.7125 3.9627 15.7125H4.4502C4.1502 15.25 3.8627 14.8125 3.5627 14.3625C3.8252 14.325 4.0502 14.2375 4.2002 14.0375ZM2.3752 14.0125V12.775H2.5127C2.8002 12.775 3.1002 12.7625 3.3877 12.7875C3.7252 12.8 3.9627 13.0625 3.9627 13.4C3.9627 13.7375 3.6877 14 3.3502 14.0125C3.0502 14.025 2.7502 14.0125 2.3752 14.0125ZM7.2127 14.175C7.0127 13.3 6.2127 13.075 5.6002 13.35C5.1252 13.5625 4.9127 13.975 4.9002 14.4875C4.8877 14.875 5.0002 15.225 5.3002 15.4875C5.6377 15.7875 6.05019 15.825 6.47519 15.75C6.71269 15.7 6.9252 15.5875 7.0877 15.4125C7.0252 15.325 6.9627 15.2375 6.9002 15.1625C6.5502 15.4625 6.1627 15.5625 5.7377 15.3625C5.4627 15.225 5.3252 14.8875 5.3002 14.6375H7.2377V14.475C7.2502 14.3625 7.2377 14.2625 7.2127 14.175ZM5.3252 14.375C5.2877 14 5.6627 13.6 6.0752 13.6C6.5502 13.5875 6.8502 13.875 6.8627 14.375H5.3252ZM9.1627 13.2875C8.9752 13.25 8.7752 13.2375 8.5877 13.25C8.2877 13.275 8.0252 13.4125 7.8127 13.6375C7.8752 13.725 7.9252 13.8125 8.0002 13.9125C8.0252 13.8875 8.0502 13.8625 8.0752 13.85C8.2752 13.6625 8.5127 13.5625 8.8002 13.5875C9.0252 13.6 9.2377 13.675 9.3002 13.9C9.3502 14.075 9.3377 14.2625 9.3502 14.45C9.3127 14.45 9.3002 14.4375 9.2877 14.425C8.9877 14.175 8.6502 14.125 8.2877 14.2125C7.9502 14.3 7.7377 14.5625 7.7127 14.9C7.6877 15.2875 7.8627 15.575 8.2002 15.7125C8.4127 15.8 8.6502 15.8 8.8752 15.75C9.0502 15.7125 9.1252 15.6125 9.3752 15.475V15.6375H9.7252C9.7252 15.1375 9.7377 14.525 9.7252 13.95C9.7252 13.5875 9.5127 13.3625 9.1627 13.2875ZM9.3377 14.8625C9.3252 14.9 9.3377 14.9375 9.3377 14.975C9.3377 15.2375 9.2752 15.325 9.0252 15.425C8.8502 15.4875 8.6627 15.5125 8.4752 15.45C8.2627 15.3875 8.1127 15.2 8.1127 14.9875C8.1002 14.775 8.2377 14.5625 8.4502 14.5C8.7377 14.4 9.0002 14.4625 9.2377 14.6375C9.3127 14.7 9.3627 14.7625 9.3377 14.8625ZM11.2877 13.625C11.6127 13.525 11.9127 13.5875 12.1377 13.8625L12.1752 13.8875C12.2627 13.8125 12.3377 13.7375 12.4377 13.65C12.4002 13.6125 12.3877 13.5875 12.3627 13.55C12.0002 13.1625 11.2877 13.1125 10.8502 13.425C10.2377 13.875 10.2502 14.75 10.5502 15.2125C10.8377 15.65 11.2502 15.8 11.7377 15.7375C12.0252 15.7 12.2627 15.5625 12.4502 15.325C12.3627 15.25 12.2752 15.175 12.1877 15.0875C12.1627 15.1125 12.1502 15.125 12.1377 15.15C11.8002 15.525 11.2377 15.4875 10.9377 15.0875C10.7627 14.85 10.7252 14.575 10.7752 14.3C10.8002 13.9875 10.9627 13.7375 11.2877 13.625ZM13.8877 15.325C13.8627 15.3375 13.8502 15.35 13.8502 15.35C13.7502 15.425 13.6502 15.4375 13.5377 15.4C13.4252 15.35 13.4127 15.25 13.4002 15.15V13.725C13.4002 13.7 13.4002 13.75 13.4127 13.625H13.8877V13.25H13.3877V12.625H13.0127V13.3H12.6877C12.6627 13.3 12.6252 13.325 12.6252 13.35C12.6127 13.4375 12.6252 13.5 12.6252 13.625H13.0252V15.225C13.0252 15.425 13.0752 15.6 13.2502 15.7C13.4377 15.8125 13.8002 15.7875 13.9627 15.65C13.9877 15.6375 14.0002 15.5875 14.0002 15.575C13.9627 15.5 13.9252 15.4125 13.8877 15.325Z" fill="#61DAFB"/>
</svg>
