<svg width="16" height="16" viewBox="0 0 16 16" fill="none" xmlns="http://www.w3.org/2000/svg">
<g clip-path="url(#clip0_411_1067)">
<path d="M4.02431 12.2441C3.97742 12.244 3.93153 12.2577 3.89244 12.2836C3.85256 12.31 3.81606 12.3555 3.81606 12.4138C3.81606 12.4215 3.81156 12.4388 3.82656 12.4688L3.82269 12.4593L4.62394 15.0589C4.63831 15.1076 4.67269 15.1449 4.71144 15.1664C4.75019 15.1879 4.79244 15.1958 4.83369 15.1958C4.92119 15.1958 5.01744 15.154 5.04681 15.0598V15.0595L5.84731 12.4501V12.4406C5.84731 12.4539 5.85119 12.4463 5.85119 12.4178C5.85119 12.3584 5.81331 12.3148 5.77281 12.2874C5.73228 12.2596 5.68435 12.2445 5.63519 12.2441C5.57394 12.2441 5.50369 12.2813 5.48019 12.352L5.47969 12.3528L4.83344 14.5095L4.18469 12.3566C4.17506 12.3181 4.14919 12.286 4.11906 12.268C4.08894 12.25 4.05606 12.2441 4.02431 12.2441ZM10.4062 12.3781C10.2787 12.3781 10.1712 12.4759 10.1712 12.5981C10.1712 12.7204 10.2769 12.8215 10.4062 12.8215C10.5329 12.8215 10.6337 12.7185 10.6337 12.5981C10.6337 12.4778 10.5312 12.3781 10.4062 12.3781ZM8.52756 13.2104C8.09156 13.2104 7.73244 13.5594 7.73244 13.9788V14.4085C7.73244 14.6434 7.82594 14.8448 7.98494 14.9836C8.14369 15.1226 8.36544 15.1995 8.61956 15.1995C8.80731 15.1995 8.96044 15.1574 9.06981 15.1004C9.12473 15.0717 9.16844 15.0399 9.20094 15.0049C9.23344 14.9699 9.25719 14.9318 9.25719 14.884C9.25719 14.8403 9.24044 14.8023 9.21306 14.7681C9.18569 14.734 9.14281 14.7026 9.08731 14.7026C9.04731 14.7026 9.01656 14.7195 8.98994 14.7359C8.96331 14.7521 8.93831 14.7703 8.90819 14.7876C8.84794 14.8223 8.76819 14.856 8.62719 14.856C8.47019 14.856 8.33944 14.8113 8.24919 14.736C8.15919 14.661 8.10669 14.5566 8.10669 14.4199V14.3404H8.91106C8.99694 14.3404 9.09231 14.3404 9.17481 14.2879C9.25731 14.2351 9.30731 14.1304 9.30731 13.9713C9.30731 13.53 8.93931 13.2104 8.52756 13.2104ZM11.5508 13.2104C11.3191 13.2104 11.1486 13.2854 11.0391 13.3981C10.9296 13.5109 10.8823 13.6576 10.8823 13.7946C10.8823 13.9694 10.9529 14.0946 11.0539 14.1748C11.1551 14.2551 11.2808 14.2955 11.4004 14.3315C11.5201 14.3675 11.6346 14.3996 11.7114 14.447C11.7883 14.4945 11.8296 14.5456 11.8296 14.6538C11.8296 14.7119 11.8121 14.7581 11.7649 14.7959C11.7177 14.8338 11.6337 14.8635 11.4971 14.8635C11.3354 14.8635 11.2451 14.8236 11.1792 14.783C11.1463 14.7626 11.1198 14.7415 11.0926 14.7226C11.0653 14.7038 11.0343 14.6834 10.9909 14.6834C10.9388 14.6834 10.9003 14.7155 10.8769 14.7488C10.8533 14.7814 10.8404 14.8206 10.8401 14.8609C10.8401 14.9115 10.8648 14.956 10.8997 14.9946C10.9347 15.0333 10.9818 15.0676 11.0398 15.0976C11.1557 15.1576 11.3153 15.1995 11.5048 15.1995C11.7107 15.1995 11.8799 15.1493 11.9998 15.0518C12.1196 14.9543 12.1848 14.8094 12.1848 14.6424C12.1848 14.4536 12.1162 14.318 12.0152 14.2283C11.9141 14.1386 11.7864 14.0924 11.6651 14.0551C11.5437 14.018 11.4268 13.989 11.3487 13.9483C11.2706 13.9075 11.2337 13.8699 11.2337 13.7833C11.2337 13.7364 11.2524 13.6774 11.3001 13.6308C11.3477 13.5844 11.4254 13.5466 11.5547 13.5466C11.6579 13.5466 11.7347 13.5704 11.7962 13.5954C11.8269 13.608 11.8537 13.6211 11.8789 13.6321C11.9043 13.643 11.9277 13.6538 11.9612 13.6538C12.0218 13.6538 12.0634 13.6138 12.0882 13.5766C12.1129 13.5395 12.1272 13.5029 12.1272 13.4609C12.1272 13.4084 12.0946 13.3711 12.0584 13.3434C12.0223 13.3156 11.9768 13.2931 11.9243 13.2739C11.8193 13.2354 11.6853 13.2104 11.5508 13.2104ZM6.06869 13.2336C5.96731 13.2336 5.87969 13.2973 5.87969 13.3919V14.416C5.87969 14.8315 6.23294 15.1995 6.67094 15.1995C7.10169 15.1995 7.46219 14.8358 7.46219 14.416V13.3881C7.46219 13.3409 7.43619 13.2998 7.40194 13.2736C7.36769 13.2476 7.32419 13.2336 7.27694 13.2336C7.22969 13.2336 7.18594 13.2474 7.15094 13.273C7.11594 13.2985 7.08794 13.3393 7.08794 13.3881V14.416C7.08794 14.6338 6.89819 14.8445 6.67094 14.8445C6.44006 14.8445 6.25406 14.63 6.25406 14.416V13.3919C6.25406 13.3428 6.22719 13.305 6.19406 13.2781C6.16094 13.2513 6.11719 13.2336 6.06869 13.2336ZM10.4063 13.2336C10.3588 13.2336 10.3151 13.2459 10.2801 13.2723C10.2451 13.2985 10.2213 13.342 10.2213 13.3881V15.2751C10.2213 15.4168 10.2113 15.5355 10.1802 15.6075C10.1492 15.6794 10.1124 15.7113 10.0077 15.7113C9.91506 15.7113 9.83769 15.7921 9.83769 15.889C9.83769 15.9291 9.85069 15.9734 9.88356 16.0078C9.91644 16.0421 9.96756 16.0625 10.0267 16.0625C10.2259 16.0625 10.3784 15.9741 10.4692 15.8306C10.5602 15.687 10.5954 15.495 10.5954 15.2751V13.3881C10.5954 13.339 10.5674 13.2963 10.5317 13.271C10.4948 13.2458 10.451 13.2328 10.4063 13.2336ZM8.52369 13.5428C8.77256 13.5428 8.94069 13.7511 8.94069 13.9634C8.94069 13.9865 8.93819 14.0016 8.93569 14.0085C8.93344 14.0154 8.93369 14.0145 8.93019 14.0169C8.92331 14.0214 8.88481 14.0313 8.81131 14.0313H8.10669V13.948C8.10669 13.7259 8.29231 13.5428 8.52369 13.5428ZM9.71269 14.714C9.57669 14.714 9.47369 14.8265 9.47369 14.9568C9.47369 15.0818 9.57519 15.1958 9.71269 15.1958C9.84294 15.1958 9.94769 15.0853 9.94769 14.9568C9.94769 14.8234 9.84119 14.714 9.71269 14.714Z" fill="white"/>
<path d="M3.92578 0.0493164L6.39191 0.0500664L8.00391 2.72594L9.61028 0.0504414L12.0743 0.0498164L8.01628 7.08882L3.92578 0.0493164Z" fill="#35495E"/>
<path d="M1.23633 0.0680547L3.92383 0.0498047L8.01408 7.08918L12.0723 0.0501797L14.7645 0.0530547L8.01358 11.6386L1.23633 0.0680547Z" fill="#41B883"/>
</g>
<defs>
<clipPath id="clip0_411_1067">
<rect width="16" height="16" fill="white"/>
</clipPath>
</defs>
</svg>
